Coordinates
version=1
nRows=22
nColumns=24
inDegrees=yes

Units are S.I. units (second, meters, Newtons, ...)
Angles are in degrees.

endheader
time	pelvis_tilt	pelvis_list	pelvis_rotation	pelvis_tx	pelvis_ty	pelvis_tz	hip_flexion_r	hip_adduction_r	hip_rotation_r	knee_angle_r	ankle_angle_r	subtalar_angle_r	mtp_angle_r	hip_flexion_l	hip_adduction_l	hip_rotation_l	knee_angle_l	ankle_angle_l	subtalar_angle_l	mtp_angle_l	lumbar_extension	lumbar_bending	lumbar_rotation
      1.24566667	     -5.81675024	      2.24621978	     -5.19491335	      0.21129738	      1.06875826	      0.28259470	     21.67833312	     -4.22494343	     -2.95082086	    -67.48182860	      3.27441828	     -3.14653646	      8.26226139	     14.21081020	      2.14534654	     -1.28382842	    -15.23825471	     10.92290954	      3.99675380	      3.49083255	     -5.65654590	     -1.28043326	      1.13034742
      1.24983333	     -5.81526978	      2.12178887	     -5.21258482	      0.21675248	      1.06968087	      0.28257586	     22.13373750	     -4.03746443	     -3.07190244	    -67.06922052	      3.53810866	     -2.96356055	      8.27004152	     13.65649249	      2.03714785	     -1.32688671	    -14.78871878	     10.96784222	      4.09234951	      3.48332269	     -5.67217890	     -1.12494360	      1.04812676
      1.25400000	     -5.79971514	      2.01004931	     -5.22335103	      0.22217957	      1.07056466	      0.28254849	     22.56770153	     -3.86738673	     -3.19552430	    -66.61182782	      3.80819652	     -2.74391599	      8.28295609	     13.08820136	      1.94836648	     -1.34248200	    -14.33488922	     11.03867387	      4.18707519	      3.47154142	     -5.72719142	     -0.99611852	      0.91043053
      1.25816667	     -5.76353011	      1.88061091	     -5.22947044	      0.22761952	      1.07146245	      0.28251779	     22.95843201	     -3.68020574	     -3.33315303	    -66.08764712	      4.06274207	     -2.57433515	      8.29801345	     12.49651250	      1.84264178	     -1.36236196	    -13.88090282	     11.08949583	      4.27367005	      3.45910463	     -5.79547504	     -0.83751346	      0.80068368
      1.26233333	     -5.77999254	      1.76956675	     -5.23894900	      0.23307171	      1.07220790	      0.28250722	     23.40148852	     -3.50369915	     -3.46283725	    -65.52418489	      4.31020022	     -2.46223538	      8.30937673	     11.96623616	      1.74987168	     -1.39630901	    -13.43363960	     11.11675904	      4.35509915	      3.45245399	     -5.79433044	     -0.69144006	      0.73951779
      1.26650000	     -5.71588763	      1.64141656	     -5.22852445	      0.23848911	      1.07304959	      0.28246334	     23.73403221	     -3.32593343	     -3.61625047	    -64.89487601	      4.56812558	     -2.27499408	      8.33154954	     11.35059677	      1.65312194	     -1.37998605	    -12.98696220	     11.18983264	      4.42115437	      3.43785567	     -5.91132256	     -0.55217052	      0.57497205
      1.27066667	     -5.71508536	      1.52344932	     -5.22492177	      0.24392484	      1.07371869	      0.28245242	     24.12897706	     -3.14408590	     -3.75660149	    -64.22690760	      4.81776626	     -2.17527966	      8.34635121	     10.81121041	      1.55616968	     -1.39529300	    -12.55657579	     11.21742749	      4.48805366	      3.42881426	     -5.93874774	     -0.40687217	      0.49595169
      1.27483333	     -5.67453813	      1.40241088	     -5.20979410	      0.24934624	      1.07440580	      0.28242813	     24.46387997	     -2.97031750	     -3.91385483	    -63.50523713	      5.05599324	     -2.05869942	      8.36594627	     10.23074192	      1.46356479	     -1.38207889	    -12.12633935	     11.28192303	      4.53957368	      3.41618738	     -6.02028591	     -0.27268305	      0.36152685
      1.27900000	     -5.65122607	      1.29778706	     -5.19588501	      0.25477334	      1.07498630	      0.28240009	     24.81320877	     -2.81367430	     -4.06635182	    -62.75263948	      5.28423108	     -1.98253334	      8.38972594	      9.66965060	      1.38814655	     -1.36002620	    -11.69548104	     11.34620640	      4.57718464	      3.39838517	     -6.08130097	     -0.13638912	      0.21455965
      1.28316667	     -5.61786996	      1.18231182	     -5.17891066	      0.26020549	      1.07554693	      0.28238584	     25.13177151	     -2.64423630	     -4.22274932	    -61.94349984	      5.50208712	     -1.92493812	      8.41119678	      9.10330246	      1.30037975	     -1.34353128	    -11.27786446	     11.40660032	      4.61827038	      3.38160119	     -6.15162913	      0.00449793	      0.09767292
      1.28733333	     -5.62093067	      1.07828681	     -5.16107073	      0.26563544	      1.07596631	      0.28239260	     25.48198910	     -2.48078939	     -4.37281729	    -61.09962153	      5.72568645	     -1.88613255	      8.42557743	      8.59035808	      1.21843702	     -1.34290243	    -10.88782494	     11.45947259	      4.66028836	      3.37029987	     -6.17527622	      0.12183752	      0.01328919
      1.29150000	     -5.57181533	      0.98401375	     -5.14295752	      0.27104794	      1.07641417	      0.28239340	     25.76752642	     -2.33768978	     -4.52596012	    -60.22001401	      5.92278272	     -1.85704365	      8.44373055	      8.01302211	      1.15557069	     -1.30788547	    -10.47455372	     11.53634706	      4.67888480	      3.35274852	     -6.26930337	      0.24067594	     -0.12946085
      1.29566667	     -5.58902800	      0.88330749	     -5.12159570	      0.27648496	      1.07668837	      0.28241428	     26.10663259	     -2.17694077	     -4.67710698	    -59.29281462	      6.12709816	     -1.84856022	      8.45417090	      7.52716124	      1.07491957	     -1.30280668	    -10.10901163	     11.59870853	      4.71197412	      3.34252499	     -6.27537906	      0.35532731	     -0.20559634
      1.29983333	     -5.57475165	      0.79119580	     -5.09979987	      0.28191129	      1.07695253	      0.28243641	     26.40158305	     -2.03131131	     -4.82723430	    -58.32927907	      6.31010671	     -1.84754051	      8.46399210	      7.00655017	      1.00783763	     -1.27922095	     -9.73809374	     11.67942775	      4.73080308	      3.33088732	     -6.32400782	      0.46641387	     -0.31460264
      1.30400000	     -5.58353242	      0.70907303	     -5.08291354	      0.28734069	      1.07709459	      0.28248889	     26.71436362	     -1.89041856	     -4.96717489	    -57.33725538	      6.48780716	     -1.85936532	      8.47139693	      6.51670404	      0.94705994	     -1.26070970	     -9.37976200	     11.76466259	      4.74964874	      3.32045468	     -6.34392540	      0.56451282	     -0.41254263
      1.30816667	     -5.58944073	      0.63499066	     -5.06300685	      0.29276375	      1.07718144	      0.28254237	     27.01202832	     -1.75973452	     -5.10536936	    -56.30739132	      6.65446003	     -1.87403902	      8.47721795	      6.03215114	      0.89540446	     -1.23726544	     -9.03617869	     11.85598323	      4.76264581	      3.31024663	     -6.36751499	      0.65063560	     -0.51247800
      1.31233333	     -5.57060350	      0.56498131	     -5.04420761	      0.29818355	      1.07725518	      0.28260607	     27.26981266	     -1.63596718	     -5.24125635	    -55.23882017	      6.78476534	     -1.90958992	      8.48469463	      5.51548810	      0.85169461	     -1.18327488	     -8.68030185	     11.95788135	      4.73883617	      3.29065348	     -6.42796598	      0.73806604	     -0.66504444
      1.31650000	     -5.61547817	      0.50638203	     -5.03179521	      0.30361411	      1.07714178	      0.28270509	     27.58717160	     -1.51159410	     -5.35950805	    -54.14092237	      6.94886567	     -1.91839661	      8.48852707	      5.08952848	      0.80897612	     -1.17706094	     -8.37219179	     12.04846762	      4.75001840	      3.28064472	     -6.39963175	      0.80393759	     -0.72625428
      1.32066667	     -5.63500413	      0.45728071	     -5.02004284	      0.30903729	      1.07700828	      0.28282334	     27.86588962	     -1.39973445	     -5.47440281	    -53.00965511	      7.08319435	     -1.93756759	      8.49134313	      4.63667614	      0.77867411	     -1.15628285	     -8.06340172	     12.15483749	      4.74746264	      3.26926566	     -6.40908024	      0.86016238	     -0.81186540
      1.32483333	     -5.65240214	      0.40985552	     -5.00764264	      0.31446690	      1.07682091	      0.28293878	     28.12721880	     -1.29008957	     -5.58401476	    -51.83971448	      7.18549001	     -1.97531489	      8.49461773	      4.18099644	      0.75186508	     -1.10926152	     -7.75404750	     12.27365320	      4.72126747	      3.25000980	     -6.42206978	      0.91703121	     -0.93070083
      1.32900000	     -5.72640494	      0.39244019	     -5.01516562	      0.31991499	      1.07645116	      0.28311649	     28.44903032	     -1.19622970	     -5.66388160	    -50.65837410	      7.33590110	     -1.96495594	      8.49637273	      3.79543021	      0.74678597	     -1.11657642	     -7.46375767	     12.39000353	      4.74080831	      3.24431943	     -6.36039500	      0.93070658	     -0.96973894
      1.33316667	     -5.76601503	      0.34701299	     -5.00367382	      0.32534249	      1.07612387	      0.28326283	     28.69938414	     -1.08141396	     -5.75648737	    -49.40278927	      7.42859748	     -1.97220728	      8.49768567	      3.39229374	      0.71583052	     -1.09801236	     -7.21910536	     12.50951652	      4.72266396	      3.23306116	     -6.34494009	      0.98724576	     -1.03825832
